<?xml version="1.0" encoding="UTF-8"?>
<svg id="Capa_1" data-name="Capa 1" xmlns="http://www.w3.org/2000/svg" viewBox="0 0 85 85">
  <defs>
    <style>
      .cls-1 {
        fill: #fff;
        stroke-width: 0px;
      }
    </style>
  </defs>
  <path class="cls-1" d="M64.39,82.74c-10.76,0-21.09.75-31.24-.19-15.55-1.36-26.87-12.45-30.34-28.14C-1.94,33.19,9.57,10.88,29.3,3.83,39.35.21,49.12.78,57.76,7.78c1.74,1.41,3.05,3.48,4.37,5.31.33.47,0,1.36,0,2.07-.75-.19-1.55-.33-2.3-.56-.19-.05-.28-.33-.42-.52C47.38-.63,26.25,2.14,18.26,19.56c-4.6,10-5.45,20.71-4.27,31.42.61,5.73,2.07,11.55,4.37,16.82,3.66,8.31,10.8,12.35,19.92,12.21,4.7-.05,9.44-.56,14.14-1.17,3.38-.47,5.07-2.68,4.98-6.29-.14-5.64-.09-11.27-.19-16.86-.05-4.23-1.13-5.26-5.31-5.31-.56,0-1.13.09-1.64,0-1.32-.28-3.52.99-3.48-1.55,0-.47,2.21-1.27,3.38-1.32,3.95-.09,7.94,0,11.93.28.8.05,2.16,1.22,2.16,1.93.14,10.9.09,21.79.09,33.07l.05-.05Z"/>
  <path class="cls-1" d="M76.08,2.8c-4.37,0-7.94,3.57-7.94,7.94s3.57,7.94,7.94,7.94,7.94-3.57,7.94-7.94-3.57-7.94-7.94-7.94ZM74.25,17.08v-4.7h1.13c.38,0,.75.05,1.03.19.28.09.52.28.75.47.19.19.38.47.52.75s.28.61.42.94l.75,1.97c-.85.38-1.78.61-2.77.61-.66,0-1.27-.09-1.83-.28v.05ZM74.25,11.02v-4.37h2.3c.19,0,.38.05.56.09.52.14.89.42,1.13.75.23.33.33.8.33,1.27,0,.33-.05.61-.14.89-.09.28-.28.52-.47.7s-.52.33-.85.47-.7.19-1.17.19c0,0-1.69,0-1.69,0ZM80.36,15.76l-.56-1.46c-.14-.33-.28-.61-.42-.89-.14-.28-.28-.47-.42-.7-.14-.19-.33-.38-.47-.52s-.38-.28-.56-.38c.38-.14.7-.28,1.03-.47s.56-.42.8-.7c.23-.28.38-.56.52-.89.09-.33.19-.75.19-1.17s-.05-.85-.19-1.22-.33-.7-.56-.99-.56-.52-.99-.7c-.38-.19-.85-.33-1.32-.42-.19,0-.38,0-.56-.05h-3.57s-.28.05-.42.14-.19.28-.19.56v10.38c-1.83-1.17-3.05-3.24-3.05-5.59,0-3.66,2.96-6.62,6.62-6.62s6.62,2.96,6.62,6.62c0,2.02-.89,3.85-2.35,5.07h-.14Z"/>
</svg>