<?xml version="1.0" encoding="UTF-8"?>
<svg id="Capa_1" data-name="Capa 1" xmlns="http://www.w3.org/2000/svg" viewBox="0 0 85 63">
  <defs>
    <style>
      .cls-1 {
        fill: #080f24;
        stroke-width: 0px;
      }
    </style>
  </defs>
  <path class="cls-1" d="M15.08,40.1c-2.29,0-4.49.16-6.65-.04-3.31-.29-5.72-2.65-6.46-5.99-1.01-4.52,1.44-9.27,5.64-10.77,2.14-.77,4.22-.65,6.06.84.37.3.65.74.93,1.13.07.1,0,.29,0,.44-.16-.04-.33-.07-.49-.12-.04-.01-.06-.07-.09-.11-2.56-3.13-7.06-2.54-8.76,1.17-.98,2.13-1.16,4.41-.91,6.69.13,1.22.44,2.46.93,3.58.78,1.77,2.3,2.63,4.24,2.6,1-.01,2.01-.12,3.01-.25.72-.1,1.08-.57,1.06-1.34-.03-1.2-.02-2.4-.04-3.59-.01-.9-.24-1.12-1.13-1.13-.12,0-.24.02-.35,0-.28-.06-.75.21-.74-.33,0-.1.47-.27.72-.28.84-.02,1.69,0,2.54.06.17.01.46.26.46.41.03,2.32.02,4.64.02,7.04Z"/>
  <path class="cls-1" d="M79.68,39.87c-.66,0-1.21.05-1.73-.03-.22-.03-.48-.33-.56-.56-.55-1.57-1.07-3.16-1.57-4.74-.14-.44-.32-.64-.83-.63-1.71.04-3.43.03-5.14,0-.52,0-.81.17-.98.68-.51,1.56-1.11,3.09-1.59,4.66-.2.66-.52.81-1.21.61.07-.23.13-.45.21-.65,1.81-4.96,3.63-9.92,5.44-14.88.19-.52,1.24-1.33,1.77-1.27.19.02.42.33.5.55,1.02,2.85,2.02,5.71,3.02,8.56.8,2.28,1.6,4.56,2.4,6.84.08.24.16.48.27.84ZM75.24,33.17c-.96-2.71-1.89-5.37-2.89-8.21-1.01,2.84-1.96,5.49-2.93,8.21h5.82Z"/>
  <path class="cls-1" d="M37.54,39.87c-.67,0-1.26.04-1.83-.02-.17-.02-.38-.3-.45-.51-.55-1.6-1.09-3.2-1.6-4.81-.14-.45-.35-.62-.84-.61-1.67.04-3.33.04-5,0-.66-.02-.97.23-1.17.84-.49,1.52-1.06,3.01-1.53,4.54-.2.66-.54.8-1.21.57.09-.28.17-.54.27-.79,1.8-4.94,3.61-9.87,5.41-14.81.16-.44,1.31-1.27,1.77-1.17.2.04.42.34.5.57,1.04,2.89,2.05,5.79,3.07,8.69.78,2.21,1.55,4.43,2.33,6.64.09.26.17.52.29.88ZM33.1,33.17c-.96-2.71-1.89-5.37-2.89-8.21-1.01,2.84-1.96,5.49-2.93,8.21h5.82Z"/>
  <path class="cls-1" d="M47.97,23.33h2.04v.8c0,4.7,0,9.39,0,14.09,0,.98.05,1.04,1.03,1.04,2.32,0,4.65,0,6.97,0,.25,0,.51,0,.77,0,.15.46.06.67-.41.67-3.29,0-6.57-.01-9.86,0-.6,0-.54-.37-.54-.75,0-3.78,0-7.56,0-11.34,0-1.48,0-2.95,0-4.52Z"/>
  <path class="cls-1" d="M81.57,23.08c-.93,0-1.69.76-1.69,1.69s.76,1.69,1.69,1.69,1.69-.76,1.69-1.69-.76-1.69-1.69-1.69ZM81.18,26.12v-1h.24c.08,0,.16.01.22.04.06.02.11.06.16.1.04.04.08.1.11.16.03.06.06.13.09.2l.16.42c-.18.08-.38.13-.59.13-.14,0-.27-.02-.39-.06ZM81.18,24.83v-.93h.31c.07,0,.13,0,.18,0,.04,0,.08.01.12.02.11.03.19.09.24.16.05.07.07.17.07.27,0,.07-.01.13-.03.19-.02.06-.06.11-.1.15s-.11.07-.18.1-.15.04-.25.04h-.36ZM82.48,25.84l-.12-.31c-.03-.07-.06-.13-.09-.19-.03-.06-.06-.1-.09-.15-.03-.04-.07-.08-.1-.11s-.08-.06-.12-.08c.08-.03.15-.06.22-.1.07-.04.12-.09.17-.15.05-.06.08-.12.11-.19.02-.07.04-.16.04-.25s-.01-.18-.04-.26-.07-.15-.12-.21-.12-.11-.21-.15c-.08-.04-.18-.07-.28-.09-.04,0-.08,0-.12-.01-.05,0-.1,0-.17,0h-.59s-.06.01-.09.03c-.03.02-.04.06-.04.12v2.21c-.39-.25-.65-.69-.65-1.19,0-.78.63-1.41,1.41-1.41s1.41.63,1.41,1.41c0,.43-.19.82-.5,1.08Z"/>
</svg>